<?xml version="1.0" encoding="UTF-8"?>
<svg width="99.034mm" height="16.571mm" version="1.1" viewBox="0 0 99.034 16.571" xmlns="http://www.w3.org/2000/svg">
 <g transform="translate(-18.44 -118.82)">
  <g transform="matrix(.26458 0 0 .26458 3.3652 67.145)">
   <g fill="#b7b5b6">
    <path class="st2" d="m393.43 257.92c0-3.82 0.02-7.65-0.02-11.47-0.01-0.86 0.17-1.22 1.13-1.19 1.88 0.06 1.88 0 1.88-1.87 0-7.42-0.02-14.84 0.02-22.26 0.01-1.04-0.24-1.38-1.32-1.34-1.96 0.07-1.68 0.23-1.68-1.71-0.02-3.29 0.02-6.58-0.02-9.87-0.01-0.79 0.2-1.05 1.03-1.05 11.94 0.02 23.88 0.02 35.82 0 0.85 0 1.01 0.31 1.01 1.07-0.03 4.21-0.03 8.41 0 12.62 0.01 0.82-0.27 1.04-1.06 1.03-3.53-0.04-7.06-0.04-10.6 0-0.77 0.01-1.18-0.17-1.05-1.01 0.14-0.89-0.27-1.11-1.11-1.08-1.61 0.06-3.23 0.04-4.84 0-0.71-0.02-1.05 0.13-1.02 0.94 0.05 1.75 0.02 3.51 0.02 5.31 0.14-0.07 0.23-0.1 0.23-0.13 0.17-1.69 0.17-1.71 1.89-1.72 3.26-0.01 6.53 0.03 9.79-0.02 0.98-0.02 1.24 0.34 1.23 1.27-0.04 4.74-0.04 9.49 0 14.23 0.01 0.94-0.27 1.27-1.24 1.26-3.38-0.05-6.76-0.06-10.13 0.01-1.13 0.02-1.69-0.24-1.51-1.44 0.02-0.14-0.04-0.28-0.25-0.42v5.64c0 0.47 0.29 0.57 0.68 0.56 1.84 0 3.69-0.02 5.53 0.01 0.77 0.01 0.79-0.46 0.73-0.98-0.1-0.85 0.21-1.12 1.08-1.11 3.53 0.05 7.06 0.03 10.6 0.01 0.7-0.01 1.03 0.13 1.02 0.94-0.04 4.59-0.03 9.18-0.04 13.77h-37.8zm18.92-1.61c5.45 0 10.91-0.01 16.36 0.01 0.64 0 1.07 0 1.05-0.88-0.05-3.25-0.03-6.5-0.01-9.76 0.01-0.65-0.21-0.85-0.86-0.85-2.53 0.03-5.07 0.05-7.6-0.01-0.88-0.02-1.2 0.25-1.06 1.09 0.12 0.73-0.16 0.99-0.93 0.98-2.8-0.05-5.61-0.05-8.41 0-0.8 0.01-0.95-0.28-0.94-0.99 0.04-2.03 0.01-4.06 0.01-6.08 0-2.57 0-2.52 2.55-2.59 0.95-0.02 1.23 0.29 1.11 1.16-0.08 0.61 0.13 0.9 0.82 0.89 2.61-0.03 5.22-0.02 7.83 0 0.53 0 0.76-0.16 0.76-0.72-0.02-3.98-0.01-7.96 0-11.94 0-0.48-0.17-0.68-0.67-0.68-2.69 0.01-5.38 0-8.06 0-0.39 0-0.75 0.07-0.66 0.55 0.25 1.43-0.62 1.44-1.63 1.35-0.38-0.03-0.77-0.04-1.15 0-0.73 0.09-0.91-0.23-0.9-0.91 0.03-2.6 0.04-5.2 0-7.8-0.01-0.8 0.3-0.94 1-0.93 2.73 0.03 5.45 0.04 8.18 0 0.81-0.01 1.26 0.13 1.11 1.04-0.13 0.82 0.27 1.03 1.06 1.01 2.5-0.04 4.99-0.04 7.49 0 0.71 0.01 0.92-0.23 0.92-0.92-0.03-3.21-0.03-6.43 0-9.64 0.01-0.67-0.15-0.93-0.89-0.92-10.98 0.02-21.97 0.02-32.95 0.01-0.67 0-0.84 0.21-0.83 0.85 0.03 2.56 0.03 5.13 0 7.69-0.01 0.68 0.14 1.01 0.88 0.91 0.3-0.04 0.62 0.03 0.92-0.01 0.94-0.14 1.22 0.2 1.22 1.17-0.04 8.76-0.05 17.52 0 26.28 0.01 1.14-0.45 1.47-1.44 1.46-0.23 0-0.46 0.03-0.69-0.01-0.72-0.1-0.91 0.21-0.9 0.9 0.04 2.41 0.05 4.82 0 7.23-0.02 0.85 0.21 1.09 1.08 1.08 5.4-0.05 10.81-0.03 16.23-0.02z"/>
    <path class="st2" d="m265.06 257.92c-2.32-2.61-4.89-4.96-7.36-7.42-0.68-0.68-0.96-1.34-0.96-2.3 0.03-10.48 0.03-20.96 0.01-31.45 0-0.82 0.2-1.43 0.81-2.01 2.32-2.24 4.59-4.52 6.85-6.81 0.52-0.53 1.05-0.77 1.81-0.77 6.76 0.03 13.52 0.03 20.28 0 0.75 0 1.29 0.21 1.82 0.74 2.31 2.35 4.65 4.67 7 6.98 0.44 0.43 0.66 0.86 0.65 1.5-0.03 3.4-0.04 6.81 0 10.21 0.01 0.82-0.26 1.03-1.05 1.02-4.38-0.03-8.76-0.03-13.13 0-0.8 0.01-1.07-0.23-1.04-1.04 0.06-1.64 0.03-3.29 0.01-4.93-0.01-1.14-0.71-1.83-1.85-1.84-1.61-0.01-3.23-0.01-4.84 0-1.28 0.01-2.09 0.84-2.09 2.15v21.12c0 1.39 0.79 2.19 2.17 2.19 1.57 0.01 3.15 0.01 4.72 0 1.15-0.01 1.85-0.69 1.88-1.82 0.09-2.74 0.09-2.78-2.61-2.75-0.83 0.01-1.14-0.18-1.12-1.07 0.05-3.21 0.04-6.43 0-9.64-0.01-0.81 0.24-1.04 1.04-1.03 5.61 0.03 11.21 0.04 16.82 0 0.88-0.01 1.09 0.27 1.09 1.11-0.03 6.2-0.03 12.39 0 18.59 0 0.68-0.25 1.13-0.71 1.59-2.55 2.54-5.08 5.1-7.61 7.66-7.53 0.02-15.06 0.02-22.59 0.02zm-6.64-25.42c0 5.16 0.01 10.33-0.01 15.49 0 0.56 0.1 1.01 0.53 1.42 2.17 2.11 4.31 4.25 6.44 6.4 0.35 0.36 0.71 0.5 1.21 0.5 6.53-0.01 13.05-0.01 19.58 0 0.5 0 0.86-0.13 1.22-0.48 2.13-2.15 4.28-4.28 6.43-6.41 0.34-0.34 0.54-0.67 0.54-1.19-0.02-5.62-0.02-11.25 0-16.87 0-0.58-0.15-0.8-0.77-0.79-4.72 0.02-9.45 0.03-14.17 0.01-0.62 0-0.79 0.19-0.78 0.78 0.03 1.72 0.01 3.44 0.01 5.16 0 2.52 0 2.52 2.58 2.54 0.12 0 0.23 0.01 0.35 0 0.64-0.08 0.88 0.17 0.86 0.83-0.04 1.38 0 2.75-0.02 4.13-0.01 1.18-1.72 2.86-2.9 2.86-2.07 0.01-4.15 0.01-6.22 0-1.21 0-2.95-1.74-2.95-2.95v-22.84c0-1.12 1.77-2.87 2.9-2.88 2.07-0.01 4.15-0.01 6.22 0 1.51 0 2.99 1.5 3 3.02 0.01 1.26 0.04 2.53-0.01 3.79-0.03 0.74 0.19 0.99 0.96 0.98 3.34-0.04 6.68-0.03 10.02 0 0.7 0.01 0.92-0.19 0.91-0.9-0.04-2.72-0.04-5.43 0-8.15 0.01-0.6-0.23-0.99-0.63-1.38-2.08-2.04-4.14-4.09-6.19-6.16-0.43-0.44-0.87-0.64-1.5-0.64-6.41 0.02-12.82 0.02-19.24 0-0.67 0-1.14 0.2-1.6 0.68-2.01 2.05-4.05 4.08-6.12 6.08-0.52 0.5-0.68 1.01-0.68 1.71 0.04 5.09 0.03 10.17 0.03 15.26z"/>
    <path class="st2" d="m212.29 257.92c-0.01-3.9 0.01-7.8-0.04-11.7-0.01-0.92 0.45-0.94 1.14-0.94 1.84 0 1.69 0.32 1.7-1.72 0-7.5-0.02-14.99 0.03-22.49 0.01-1.02-0.27-1.32-1.29-1.27-1.55 0.08-1.55 0.01-1.55-1.5 0-3.33 0.02-6.66-0.01-9.98-0.01-0.8 0.13-1.14 1.06-1.14 9.94 0.03 19.89 0.03 29.83 0.01 0.64 0 1.07 0.24 1.5 0.67 2.27 2.29 4.51 4.6 6.85 6.8 0.82 0.77 0.92 1.58 0.85 2.57-0.25 3.28-0.31 6.56 0.03 9.84 0.13 1.26-0.38 2.07-1.23 2.88-1.78 1.69-1.79 1.77-0.04 3.38 0.94 0.86 1.19 1.77 1.14 3.02-0.13 2.67-0.02 5.35-0.05 8.03-0.01 0.8 0.39 0.94 1.07 0.94 1.92 0.02 1.92 0.04 1.92 1.95 0 3.56-0.01 7.11-0.02 10.67h-17.98c-0.01-5.84-0.01-11.68-0.02-17.52 0-1.79-0.67-2.44-2.49-2.44-1.03 0-2.07 0.06-3.1-0.02-0.98-0.08-1.38 0.19-1.31 1.24 0.1 1.37 0.02 2.75 0.02 4.12 0 1.95 0 1.99 1.9 1.95 0.85-0.02 1.11 0.22 1.1 1.09-0.05 3.86-0.02 7.71-0.02 11.57-7.01-0.01-14-0.01-20.99-0.01zm16.43-49.13c-4.57 0-9.14 0.02-13.71-0.02-0.83-0.01-1.22 0.1-1.19 1.09 0.08 2.48 0.05 4.97 0.01 7.46-0.01 0.69 0.17 1 0.9 0.9 0.26-0.04 0.54 0.03 0.8-0.01 1.11-0.2 1.3 0.33 1.3 1.33-0.04 8.38-0.02 16.75-0.02 25.13 0 2.15 0 2.17-2.1 2.2-0.61 0.01-0.89 0.11-0.88 0.81 0.04 2.6 0.04 5.2 0 7.8-0.01 0.66 0.21 0.84 0.86 0.84 5.38-0.02 10.75-0.02 16.13 0 0.65 0 0.86-0.18 0.85-0.83-0.04-2.14-0.01-4.28-0.01-6.43 0-2.1 0-2.12-2.13-2.16-0.63-0.01-0.87-0.16-0.87-0.83 0.03-2.94 0.04-5.89 0-8.84-0.01-0.74 0.25-0.89 0.93-0.88 2 0.04 3.99 0.01 5.99 0.01 1.55 0 3.18 1.63 3.18 3.18v15.72c0 0.59-0.08 1.08 0.85 1.07 4.38-0.05 8.75-0.04 13.13-0.01 0.77 0.01 0.87-0.3 0.86-0.94-0.03-2.14-0.01-4.28-0.01-6.43 0-2.04 0-2.09-2-2.05-0.87 0.02-0.99-0.31-0.98-1.06 0.04-3.02-0.01-6.04 0.03-9.07 0.01-0.92-0.17-1.63-0.87-2.34-0.75-0.75-1.43-1.58-2.23-2.29-0.42-0.38-0.41-0.6 0-0.98 0.85-0.78 1.62-1.63 2.47-2.41 0.46-0.42 0.64-0.87 0.63-1.5-0.03-3.4-0.03-6.81 0-10.21 0.01-0.67-0.21-1.14-0.68-1.6-2.03-1.98-4.04-3.98-6.01-6.02-0.47-0.48-0.94-0.66-1.6-0.65-4.56 0.03-9.09 0.02-13.63 0.02z"/>
    <path class="st2" d="m159.75 257.92c0.01-3.79 0.05-7.57 0.01-11.36-0.01-0.98 0.2-1.32 1.26-1.31 2.2 0.04 1.86 0.48 2.79-1.82 3.01-7.47 6.02-14.95 9.06-22.41 0.34-0.84 0.37-1.33-0.74-1.22-0.54 0.05-0.61-0.3-0.61-0.73 0.01-3.71 0.01-7.42-0.01-11.13 0-0.63 0.27-0.76 0.83-0.76 8.76 0.01 17.51 0.01 26.27 0 0.61 0 0.8 0.22 0.79 0.81-0.02 3.67-0.03 7.35 0.01 11.02 0.01 0.81-0.4 0.88-1 0.82-0.89-0.1-1.13 0.07-0.74 1.03 3.22 7.88 6.39 15.79 9.55 23.69 0.28 0.7 0.71 0.76 1.33 0.76 2.15 0 2.15 0.02 2.15 2.18 0 3.48-0.01 6.96-0.02 10.44h-20.51c-0.01-3.89-0.01-7.79-0.01-11.68 0-0.44-0.12-0.97 0.62-0.96 0.23 0.01 0.51-0.01 0.5-0.32 0-0.39-0.34-0.35-0.6-0.35h-10.81c-0.11 0-0.23 0.01-0.34 0.04-0.19 0.06-0.34 0.18-0.32 0.41 0.02 0.2 0.2 0.23 0.34 0.22 0.77-0.06 0.74 0.44 0.74 0.97-0.02 3.89-0.02 7.79-0.03 11.68-6.84-0.02-13.68-0.02-20.51-0.02zm17.06-11.15c0.34-0.98 0.73-1.93 1-2.92 0.2-0.74 0.6-0.91 1.32-0.91 3.38 0.03 6.76 0.01 10.14 0.02 1.03 0 2.28-0.31 3.04 0.16 0.83 0.51 0.7 1.93 1.12 2.9 0.35 0.82 0.02 0.96-0.66 0.85-0.91-0.15-1.07 0.27-1.05 1.09 0.05 2.49 0.04 4.97 0 7.46-0.01 0.71 0.2 0.9 0.91 0.9 5.18-0.03 10.37-0.03 15.55 0 0.7 0 0.93-0.17 0.92-0.89-0.04-2.29-0.02-4.59-0.02-6.89 0-1.64 0-1.68-1.61-1.63-0.78 0.03-1.15-0.18-1.46-0.97-3.42-8.58-6.88-17.15-10.36-25.71-0.8-1.97-0.84-1.99 1.27-2 0.78 0 0.85-0.32 0.85-0.95-0.03-2.52-0.04-5.05 0.01-7.57 0.02-0.79-0.26-0.94-0.98-0.93-7.57 0.02-15.13 0.03-22.7 0-0.77 0-0.98 0.22-0.97 0.97 0.04 2.37 0.08 4.75-0.01 7.12-0.04 1.1 0.24 1.56 1.37 1.36 1.04-0.18 1.2 0.13 0.79 1.13-3.51 8.59-6.99 17.19-10.41 25.81-0.5 1.25-1.02 2.05-2.51 1.72-0.58-0.13-0.9 0.08-0.89 0.78 0.04 2.6 0.03 5.2 0 7.8-0.01 0.65 0.21 0.84 0.86 0.84 5.15-0.02 10.29-0.02 15.44 0 0.7 0 0.93-0.19 0.92-0.9-0.04-2.14-0.01-4.28-0.01-6.43 0.02-1.96 0.02-1.96-1.87-2.21z"/>
    <path class="st2" d="m297.56 257.92c0-3.86 0.01-7.73-0.02-11.59-0.01-0.77 0.19-1.21 1.01-1.04 1.73 0.36 2.44-0.49 3.04-2.02 2.96-7.57 6.02-15.11 9.08-22.64 0.3-0.74 0.06-0.88-0.59-0.81-0.6 0.06-0.8-0.21-0.8-0.8 0.02-3.67 0.02-7.34 0-11.02 0-0.68 0.27-0.83 0.89-0.83 8.64 0.01 17.28 0.01 25.92 0 0.71 0 0.92 0.24 0.92 0.93-0.03 3.6-0.03 7.19 0 10.79 0.01 0.8-0.31 1.01-1.02 0.93-0.88-0.1-0.95 0.28-0.66 1 1.97 4.85 3.91 9.7 5.87 14.55 1.19 2.94 2.43 5.86 3.55 8.82 0.34 0.9 0.79 1.13 1.69 1.11 2.04-0.06 2.04-0.01 2.04 2.06 0.01 3.52 0.01 7.04 0.02 10.56h-20.74c0-3.86-0.01-7.72 0.01-11.58 0-0.4-0.25-0.97 0.51-1.05 0.26-0.03 0.76 0.16 0.73-0.29-0.03-0.52-0.57-0.4-0.93-0.4-3.42-0.01-6.83 0-10.25 0-0.15 0-0.31 0-0.46 0.01-0.2 0.01-0.39 0.09-0.41 0.31-0.02 0.23 0.15 0.36 0.36 0.35 0.86-0.06 0.75 0.54 0.75 1.07 0 3.86 0 7.72 0.01 11.58h-20.52zm16.9-11.13c0.35-0.98 0.78-1.93 1-2.92 0.18-0.8 0.59-0.92 1.29-0.91 3.38 0.03 6.76 0.01 10.13 0.01 3.24 0 3.2 0.01 4.22 3.03 0.3 0.88-0.01 0.99-0.72 0.88-0.78-0.11-1.05 0.16-1.04 0.99 0.06 2.48 0.04 4.97 0.01 7.46-0.01 0.69 0.09 1.01 0.91 1 5.22-0.04 10.44-0.03 15.66 0 0.74 0 0.9-0.25 0.89-0.93-0.03-2.41-0.07-4.82 0.01-7.23 0.04-1.07-0.3-1.46-1.34-1.29-0.99 0.16-1.52-0.17-1.93-1.21-3.39-8.59-6.88-17.14-10.33-25.71-0.22-0.55-0.55-1.07-0.59-1.75 0.63 0 1.21-0.04 1.78 0.01 0.72 0.06 1-0.14 0.99-0.93-0.05-2.52-0.03-5.05-0.01-7.57 0.01-0.63-0.07-0.95-0.85-0.95-7.6 0.03-15.2 0.03-22.8 0-0.73 0-0.9 0.24-0.89 0.92 0.04 2.41 0.07 4.82-0.01 7.23-0.03 1.03 0.24 1.49 1.31 1.3 0.99-0.17 1.24 0.08 0.82 1.11-3.52 8.62-7.03 17.25-10.45 25.91-0.5 1.25-1.05 1.92-2.43 1.65-0.74-0.14-0.98 0.18-0.97 0.94 0.05 2.52 0.05 5.05 0 7.57-0.02 0.79 0.27 0.93 0.99 0.93 5.11-0.03 10.21-0.03 15.32 0.01 0.85 0.01 1.01-0.29 0.99-1.06-0.05-2.1-0.02-4.21-0.02-6.31 0.01-1.96 0.01-1.96-1.94-2.18z"/>
    <path class="st2" d="m359.78 257.92c0-3.83 0.02-7.65-0.02-11.48-0.01-0.85 0.15-1.22 1.12-1.19 1.88 0.07 1.88 0.01 1.88-1.86v-22.26c0-0.31 0-0.61-0.02-0.92-0.03-0.36-0.31-0.4-0.59-0.39-0.29 0.01-0.65-0.08-0.73 0.36-0.03 0.15-0.02 0.3-0.03 0.46-0.11 2.17-0.11 2.17-2.29 2.17-3.11 0-6.22-0.03-9.33 0.02-0.87 0.01-1.1-0.26-1.09-1.11 0.04-4.51 0.04-9.03 0-13.54-0.01-0.84 0.3-1.01 1.07-1.01 13.75 0.02 27.49 0.02 41.24-0.01 0.9 0 1.08 0.3 1.07 1.12-0.04 4.48-0.04 8.95 0 13.43 0.01 0.83-0.18 1.13-1.08 1.12-3.53-0.05-7.07-0.04-10.6 0-0.81 0.01-1.12-0.24-1.03-1.04 0.05-0.45 0-0.92 0.01-1.38 0.01-0.56-0.36-0.58-0.77-0.59-0.44-0.01-0.63 0.19-0.62 0.62 0.01 0.19 0 0.38 0 0.57 0 7.69 0.02 15.38-0.02 23.07 0 0.95 0.26 1.35 1.22 1.2 0.26-0.04 0.54 0.02 0.8-0.01 0.84-0.12 1.02 0.28 1.02 1.05-0.03 3.86-0.01 7.73-0.01 11.59-7.06 0.01-14.13 0.01-21.2 0.01zm10.6-49.13c-6.34-0.01-12.68 0-19.01-0.01-0.59 0-1.1-0.1-1.09 0.83 0.05 3.6 0.04 7.19 0.01 10.79-0.01 0.67 0.23 0.84 0.86 0.83 2.15-0.03 4.3-0.01 6.45-0.01 2.11 0 2.14 0 2.15-2.14 0-0.74 0.24-0.92 0.93-0.88 0.84 0.05 1.7 0.08 2.53-0.01 0.99-0.1 1.19 0.28 1.19 1.21-0.03 8.38-0.02 16.76-0.02 25.14 0 2.25 0 2.27-2.19 2.33-0.57 0.02-0.81 0.12-0.8 0.76 0.03 2.64 0.03 5.28 0 7.92-0.01 0.61 0.2 0.78 0.79 0.77 5.45-0.02 10.91-0.02 16.36 0 0.67 0 0.84-0.22 0.83-0.85-0.03-2.45-0.05-4.9 0.01-7.35 0.02-0.81-0.22-1.13-1.03-1.01-0.23 0.03-0.47-0.03-0.69 0.01-1.1 0.18-1.42-0.23-1.42-1.36 0.05-8.3 0.03-16.61 0.03-24.91 0-2.66 0-2.66 2.7-2.61 1.98 0.04 2.03 0.04 1.99 2-0.02 0.83 0.25 1.02 1.04 1 2.46-0.05 4.92-0.06 7.37 0 0.84 0.02 1.11-0.17 1.1-1.06-0.06-3.44-0.05-6.89 0-10.33 0.01-0.84-0.19-1.09-1.07-1.08-6.35 0.04-12.68 0.02-19.02 0.02z"/>
    <path class="st2" d="m129.1 257.92c0.01-3.79 0.05-7.58 0-11.36-0.01-0.98 0.2-1.46 1.26-1.28 0.22 0.04 0.46-0.02 0.69 0.01 0.89 0.13 1.08-0.28 1.08-1.11-0.04-4.63-0.02-9.26-0.02-13.89 0-3.14 0.01-6.27-0.01-9.41 0-0.44 0.23-1.04-0.62-1.07-0.89-0.03-0.74 0.57-0.75 1.08-0.04 1.92-0.03 1.92-1.97 1.92-3.23 0-6.45-0.02-9.68 0.01-0.79 0.01-1.06-0.2-1.06-1.02 0.04-4.55 0.03-9.11 0-13.66-0.01-0.75 0.23-0.98 0.98-0.97 13.86 0.02 27.73 0.02 41.59 0 0.67 0 0.85 0.1 0.84 0.87-0.07 4.48-0.07 8.95-0.02 13.43 0.01 1-0.19 1.4-1.31 1.37-3.42-0.08-6.84-0.06-10.25-0.01-0.9 0.01-1.28-0.23-1.16-1.15 0.06-0.45 0.02-0.92 0-1.38-0.02-0.5-0.41-0.46-0.76-0.47s-0.61 0.08-0.61 0.5c0 0.23-0.01 0.46-0.01 0.69 0 7.69 0.01 15.38-0.02 23.07 0 0.95 0.25 1.35 1.22 1.21 0.26-0.04 0.54 0.03 0.8-0.01 0.84-0.12 1.02 0.28 1.02 1.05-0.03 3.86-0.02 7.73-0.02 11.59-7.08-0.01-14.15-0.01-21.21-0.01zm10.63-49.13h-19.01c-0.5 0-1.08-0.19-1.07 0.72 0.04 3.67 0.02 7.35 0.01 11.02 0 0.46 0.11 0.7 0.64 0.7 2.73-0.02 5.45-0.02 8.18 0 0.5 0 0.64-0.18 0.67-0.67 0.05-0.77-0.41-1.82 0.26-2.24 0.59-0.36 1.57-0.1 2.37-0.11 0.27 0 0.54 0.04 0.81-0.01 0.99-0.16 1.19 0.28 1.18 1.2-0.04 8.42-0.02 16.84-0.02 25.25 0 2.15 0 2.17-2.09 2.2-0.61 0.01-0.9 0.12-0.89 0.82 0.04 2.6 0.03 5.2 0 7.81-0.01 0.67 0.24 0.83 0.87 0.83 5.42-0.02 10.83-0.02 16.25 0 0.66 0 0.85-0.2 0.84-0.85-0.03-2.26-0.01-4.51-0.01-6.77 0-1.82 0-1.89-1.79-1.79-1.06 0.06-1.25-0.29-1.25-1.28 0.04-8.23 0.02-16.45 0.02-24.68 0-2.75 0-2.75 2.71-2.71 1.92 0.03 1.96 0.03 1.93 1.96-0.01 0.78 0.18 1.06 1.01 1.04 2.5-0.05 4.99-0.06 7.49 0 0.86 0.02 1-0.31 0.99-1.06-0.03-3.44-0.05-6.89 0.01-10.33 0.01-0.86-0.22-1.09-1.08-1.08-6.36 0.05-12.7 0.03-19.03 0.03z"/>
   </g>
   <g fill="#662d80">
    <path class="st1" d="m111.12 219.59c-0.04 0.05-0.08 0.1-0.12 0.14-0.1-0.1-0.06-0.17 0.05-0.22 0.01 0 0.07 0.08 0.07 0.08z"/>
    <path class="st1" d="m412.35 256.31c-5.41 0-10.83-0.02-16.24 0.02-0.87 0.01-1.1-0.23-1.08-1.08 0.06-2.41 0.04-4.82 0-7.23-0.01-0.7 0.17-1.01 0.9-0.9 0.23 0.03 0.46 0 0.69 0.01 0.99 0.01 1.44-0.31 1.44-1.46-0.05-8.76-0.04-17.52 0-26.28 0-0.97-0.28-1.31-1.22-1.17-0.3 0.05-0.62-0.03-0.92 0.01-0.74 0.11-0.89-0.22-0.88-0.91 0.04-2.56 0.04-5.13 0-7.69-0.01-0.64 0.16-0.85 0.83-0.85 10.98 0.02 21.97 0.02 32.95-0.01 0.74 0 0.89 0.25 0.89 0.92-0.03 3.21-0.03 6.43 0 9.64 0.01 0.69-0.2 0.93-0.92 0.92-2.5-0.04-4.99-0.04-7.49 0-0.78 0.01-1.18-0.2-1.06-1.01 0.14-0.91-0.31-1.06-1.11-1.04-2.73 0.05-5.45 0.04-8.18 0-0.71-0.01-1.02 0.13-1 0.93 0.05 2.6 0.04 5.2 0 7.8-0.01 0.68 0.18 1 0.9 0.91 0.38-0.05 0.77-0.04 1.15 0 1.01 0.09 1.88 0.08 1.63-1.35-0.08-0.47 0.28-0.55 0.66-0.55 2.69 0.01 5.38 0.01 8.06 0 0.5 0 0.67 0.19 0.67 0.68-0.01 3.98-0.01 7.96 0 11.94 0 0.56-0.23 0.72-0.76 0.72-2.61-0.02-5.22-0.03-7.83 0-0.69 0.01-0.9-0.28-0.82-0.89 0.12-0.86-0.16-1.18-1.11-1.16-2.55 0.06-2.55 0.01-2.55 2.59 0 2.03 0.03 4.06-0.01 6.08-0.01 0.71 0.14 1.01 0.94 0.99 2.8-0.05 5.61-0.05 8.41 0 0.78 0.01 1.06-0.24 0.93-0.98-0.14-0.85 0.18-1.12 1.06-1.09 2.53 0.06 5.07 0.04 7.6 0.01 0.65-0.01 0.86 0.2 0.86 0.85-0.03 3.25-0.04 6.5 0.01 9.76 0.01 0.88-0.42 0.88-1.05 0.88-5.45-0.02-10.9-0.01-16.35-0.01z"/>
    <path class="st1" d="m258.42 232.5c0-5.09 0.01-10.17-0.01-15.26 0-0.7 0.16-1.21 0.68-1.71 2.07-1.99 4.1-4.02 6.12-6.08 0.47-0.47 0.93-0.68 1.6-0.68 6.41 0.02 12.82 0.02 19.24 0 0.63 0 1.07 0.2 1.5 0.64 2.05 2.07 4.11 4.12 6.19 6.16 0.4 0.4 0.64 0.78 0.63 1.38-0.03 2.72-0.04 5.43 0 8.15 0.01 0.71-0.2 0.91-0.91 0.9-3.34-0.04-6.68-0.04-10.02 0-0.77 0.01-0.99-0.24-0.96-0.98 0.05-1.26 0.02-2.52 0.01-3.79-0.01-1.52-1.5-3.01-3-3.02-2.07-0.01-4.15-0.01-6.22 0-1.13 0.01-2.9 1.76-2.9 2.88-0.01 7.61-0.01 15.22 0 22.84 0 1.21 1.74 2.94 2.95 2.95 2.07 0.01 4.15 0.01 6.22 0 1.18-0.01 2.89-1.69 2.9-2.86 0.02-1.38-0.02-2.75 0.02-4.13 0.02-0.66-0.23-0.91-0.86-0.83-0.11 0.01-0.23 0-0.35 0-2.58-0.01-2.58-0.01-2.58-2.54 0-1.72 0.02-3.44-0.01-5.16-0.01-0.59 0.16-0.78 0.78-0.78 4.72 0.02 9.45 0.02 14.17-0.01 0.62 0 0.77 0.21 0.77 0.79-0.02 5.62-0.02 11.25 0 16.87 0 0.52-0.2 0.85-0.54 1.19-2.15 2.13-4.3 4.26-6.43 6.41-0.35 0.36-0.72 0.48-1.22 0.48-6.53-0.01-13.05-0.01-19.58 0-0.5 0-0.86-0.14-1.21-0.5-2.13-2.15-4.28-4.29-6.44-6.4-0.43-0.42-0.54-0.86-0.53-1.42-0.01-5.16-0.01-10.32-0.01-15.49z"/>
    <path class="st1" d="m228.72 208.79c4.53 0 9.06 0.01 13.59-0.01 0.66 0 1.13 0.17 1.6 0.65 1.98 2.03 3.99 4.03 6.01 6.02 0.47 0.46 0.69 0.93 0.68 1.6-0.03 3.4-0.03 6.81 0 10.21 0.01 0.63-0.18 1.08-0.63 1.5-0.84 0.78-1.62 1.63-2.47 2.41-0.41 0.38-0.42 0.6 0 0.98 0.79 0.71 1.48 1.54 2.23 2.29 0.7 0.7 0.88 1.41 0.87 2.34-0.04 3.02 0.01 6.04-0.03 9.07-0.01 0.75 0.12 1.08 0.98 1.06 2-0.04 2 0.01 2 2.05 0 2.14-0.02 4.28 0.01 6.43 0.01 0.64-0.09 0.95-0.86 0.94-4.38-0.04-8.75-0.05-13.13 0.01-0.93 0.01-0.85-0.48-0.85-1.07 0.01-5.24 0-10.48 0-15.72 0-1.55-1.63-3.18-3.18-3.18-2 0-3.99 0.03-5.99-0.01-0.68-0.01-0.94 0.14-0.93 0.88 0.04 2.94 0.04 5.89 0 8.84-0.01 0.68 0.24 0.82 0.87 0.83 2.13 0.04 2.13 0.06 2.13 2.16 0 2.14-0.02 4.28 0.01 6.43 0.01 0.66-0.2 0.84-0.85 0.83-5.38-0.02-10.75-0.02-16.13 0-0.65 0-0.86-0.18-0.86-0.84 0.03-2.6 0.03-5.2 0-7.8-0.01-0.7 0.27-0.8 0.88-0.81 2.1-0.03 2.1-0.05 2.1-2.2 0-8.38-0.02-16.75 0.02-25.13 0-1-0.18-1.53-1.3-1.33-0.26 0.05-0.54-0.03-0.8 0.01-0.73 0.1-0.91-0.2-0.9-0.9 0.04-2.49 0.07-4.97-0.01-7.46-0.03-0.99 0.36-1.1 1.19-1.09 4.62 0.02 9.19 0.01 13.75 0.01zm-0.04 13.77c0 1.18 0.04 2.37-0.01 3.55-0.03 0.66 0.2 0.85 0.84 0.84 2.18-0.03 4.37-0.02 6.55-0.01 0.46 0 0.79-0.15 1.1-0.48 1.01-1.08 1.98-2.13 1.61-3.81-0.12-0.55 0-1.14-0.02-1.71-0.03-0.85-1.83-2.71-2.67-2.72-2.22-0.02-4.44 0.01-6.66-0.02-0.64-0.01-0.77 0.25-0.75 0.81 0.03 1.19 0.01 2.37 0.01 3.55z"/>
    <path class="st1" d="m176.81 246.77c1.89 0.25 1.89 0.25 1.89 2.22 0 2.14-0.03 4.29 0.01 6.43 0.01 0.71-0.22 0.9-0.92 0.9-5.15-0.03-10.29-0.02-15.44 0-0.65 0-0.86-0.19-0.86-0.84 0.03-2.6 0.04-5.2 0-7.8-0.01-0.71 0.3-0.91 0.89-0.78 1.48 0.33 2.01-0.47 2.51-1.72 3.42-8.63 6.9-17.23 10.41-25.81 0.41-1 0.25-1.31-0.79-1.13-1.13 0.2-1.41-0.27-1.37-1.36 0.09-2.37 0.05-4.74 0.01-7.12-0.01-0.74 0.19-0.97 0.97-0.97 7.57 0.03 15.13 0.03 22.7 0 0.72 0 1 0.15 0.98 0.93-0.05 2.52-0.04 5.05-0.01 7.57 0.01 0.63-0.06 0.95-0.85 0.95-2.11 0-2.07 0.03-1.27 2 3.48 8.56 6.94 17.13 10.36 25.71 0.31 0.78 0.68 0.99 1.46 0.97 1.6-0.06 1.6-0.02 1.61 1.63 0 2.3-0.03 4.59 0.02 6.89 0.01 0.72-0.22 0.89-0.92 0.89-5.18-0.03-10.37-0.03-15.55 0-0.71 0-0.92-0.19-0.91-0.9 0.04-2.49 0.05-4.97 0-7.46-0.02-0.81 0.14-1.23 1.05-1.09 0.68 0.11 1.01-0.03 0.66-0.85-0.42-0.97-0.29-2.39-1.12-2.9-0.76-0.47-2.01-0.16-3.04-0.16-3.38-0.01-6.76 0.02-10.14-0.02-0.72-0.01-1.12 0.17-1.32 0.91-0.28 0.98-0.67 1.93-1.02 2.91zm12.88-11.65c-1.49-3.58-2.92-7.01-4.42-10.63-1.52 3.66-2.94 7.1-4.4 10.63h8.82z"/>
    <path class="st1" d="m314.46 246.79c1.95 0.22 1.95 0.22 1.95 2.17 0 2.1-0.03 4.21 0.02 6.31 0.02 0.76-0.14 1.06-0.99 1.06-5.11-0.04-10.21-0.03-15.32-0.01-0.71 0-1-0.14-0.99-0.93 0.05-2.52 0.05-5.05 0-7.57-0.01-0.76 0.22-1.08 0.97-0.94 1.38 0.27 1.94-0.39 2.43-1.65 3.42-8.66 6.93-17.29 10.45-25.91 0.42-1.03 0.17-1.28-0.82-1.11-1.07 0.18-1.34-0.27-1.31-1.3 0.08-2.41 0.05-4.82 0.01-7.23-0.01-0.68 0.16-0.92 0.89-0.92 7.6 0.03 15.2 0.03 22.8 0 0.78 0 0.86 0.31 0.85 0.95-0.03 2.52-0.04 5.05 0.01 7.57 0.02 0.79-0.27 0.99-0.99 0.93-0.57-0.05-1.15-0.01-1.78-0.01 0.04 0.68 0.37 1.2 0.59 1.75 3.45 8.57 6.94 17.12 10.33 25.71 0.41 1.04 0.94 1.37 1.93 1.21 1.04-0.17 1.38 0.21 1.34 1.29-0.09 2.41-0.05 4.82-0.01 7.23 0.01 0.68-0.15 0.93-0.89 0.93-5.22-0.03-10.44-0.04-15.66 0-0.82 0.01-0.92-0.32-0.91-1 0.03-2.49 0.05-4.97-0.01-7.46-0.02-0.83 0.25-1.1 1.04-0.99 0.71 0.1 1.02-0.01 0.72-0.88-1.02-3.02-0.99-3.03-4.22-3.03-3.38 0-6.76 0.01-10.13-0.01-0.7-0.01-1.11 0.12-1.29 0.91-0.23 0.99-0.66 1.94-1.01 2.93zm12.88-11.66c-1.46-3.52-2.89-6.96-4.42-10.64-1.53 3.7-2.96 7.13-4.41 10.64h8.83z"/>
    <path class="st1" d="m370.38 208.79c6.34 0 12.68 0.02 19.01-0.02 0.88-0.01 1.08 0.24 1.07 1.08-0.05 3.44-0.05 6.89 0 10.33 0.01 0.88-0.25 1.08-1.1 1.06-2.46-0.06-4.92-0.05-7.37 0-0.79 0.02-1.06-0.18-1.04-1 0.04-1.96-0.01-1.96-1.99-2-2.7-0.05-2.7-0.05-2.7 2.61 0 8.3 0.02 16.61-0.03 24.91-0.01 1.13 0.32 1.54 1.42 1.36 0.22-0.04 0.46 0.02 0.69-0.01 0.81-0.12 1.05 0.2 1.03 1.01-0.05 2.45-0.04 4.9-0.01 7.35 0.01 0.63-0.16 0.86-0.83 0.85-5.45-0.02-10.91-0.02-16.36 0-0.6 0-0.8-0.16-0.79-0.77 0.03-2.64 0.03-5.28 0-7.92-0.01-0.63 0.24-0.74 0.8-0.76 2.19-0.06 2.19-0.08 2.19-2.33 0-8.38-0.01-16.76 0.02-25.14 0-0.93-0.2-1.31-1.19-1.21-0.84 0.09-1.69 0.06-2.53 0.01-0.68-0.04-0.93 0.14-0.93 0.88 0 2.14-0.04 2.14-2.15 2.14-2.15 0-4.3-0.02-6.45 0.01-0.63 0.01-0.87-0.16-0.86-0.83 0.03-3.6 0.04-7.19-0.01-10.79-0.01-0.93 0.5-0.83 1.09-0.83 6.34 0.01 12.68 0.01 19.02 0.01z"/>
    <path class="st1" d="m139.73 208.79c6.34 0 12.68 0.02 19.01-0.02 0.86-0.01 1.1 0.22 1.08 1.08-0.05 3.44-0.04 6.89-0.01 10.33 0.01 0.75-0.13 1.08-0.99 1.06-2.5-0.06-4.99-0.05-7.49 0-0.83 0.02-1.03-0.26-1.01-1.04 0.03-1.93-0.01-1.93-1.93-1.96-2.71-0.04-2.71-0.04-2.71 2.71 0 8.23 0.02 16.45-0.02 24.68 0 0.98 0.19 1.33 1.25 1.28 1.79-0.1 1.79-0.02 1.79 1.79 0 2.26-0.02 4.52 0.01 6.77 0.01 0.64-0.17 0.85-0.84 0.85-5.42-0.02-10.83-0.02-16.25 0-0.63 0-0.88-0.16-0.87-0.83 0.03-2.6 0.03-5.2 0-7.81-0.01-0.69 0.28-0.81 0.89-0.82 2.09-0.04 2.09-0.06 2.09-2.2 0-8.42-0.01-16.84 0.02-25.25 0-0.93-0.2-1.36-1.18-1.2-0.26 0.04-0.54 0-0.81 0.01-0.81 0.01-1.78-0.25-2.37 0.11-0.67 0.41-0.21 1.47-0.26 2.24-0.03 0.49-0.17 0.67-0.67 0.67-2.73-0.02-5.45-0.02-8.18 0-0.53 0-0.64-0.24-0.64-0.7 0.01-3.67 0.03-7.35-0.01-11.02-0.01-0.91 0.57-0.72 1.07-0.72 6.35-0.01 12.69-0.01 19.03-0.01z"/>
   </g>
   <g fill="#b7b5b6">
    <path class="st2" d="m228.68 222.56c0-1.18 0.02-2.37-0.01-3.55-0.02-0.56 0.11-0.82 0.75-0.81 2.22 0.03 4.44 0 6.66 0.02 0.84 0.01 2.63 1.87 2.67 2.72 0.02 0.57-0.1 1.17 0.02 1.71 0.37 1.68-0.61 2.73-1.61 3.81-0.31 0.33-0.64 0.48-1.1 0.48-2.18-0.02-4.37-0.03-6.55 0.01-0.64 0.01-0.87-0.17-0.84-0.84 0.05-1.18 0.01-2.37 0.01-3.55zm4.53-2.74c-0.73 0-1.46 0.02-2.19 0-0.54-0.02-0.76 0.19-0.75 0.73 0.02 1.38 0 2.75 0.01 4.13 0 0.27 0.01 0.6 0.37 0.61 1.76 0.01 3.52-0.01 5.28-0.05 0.15 0 0.28-0.24 0.44-0.35 1.17-0.79 0.74-1.99 0.77-3.04 0.03-1.15-0.84-2-1.98-2.02-0.65-0.02-1.3-0.01-1.95-0.01z"/>
    <path class="st2" d="m189.69 235.12h-8.82c1.46-3.53 2.89-6.97 4.4-10.63 1.5 3.62 2.93 7.05 4.42 10.63zm-4.45-6.23c-0.61 1.42-1.11 2.61-1.62 3.8-0.23 0.53-0.18 0.9 0.53 0.89 0.81-0.01 1.61-0.01 2.42 0 0.44 0 0.66-0.12 0.44-0.61-0.56-1.29-0.96-2.65-1.77-4.08z"/>
    <path class="st2" d="m327.34 235.13h-8.83c1.45-3.51 2.88-6.94 4.41-10.64 1.53 3.68 2.96 7.12 4.42 10.64zm-4.41-6.36c-0.66 1.56-1.19 2.84-1.74 4.12-0.17 0.41-0.11 0.67 0.4 0.68h2.64c0.38 0 0.61-0.17 0.45-0.57-0.54-1.32-1.09-2.64-1.75-4.23z"/>
   </g>
   <path class="st0" d="m111.11 215.17c0.74-2.96 0.31-6.02-1.07-7.66-1.11-1.48-5.09-3.46-7.05-4.37-0.16-0.39-0.41-0.76-0.75-1.12-3.74-3.88-20.56-6.71-26.55-6.71-2.1 0-3.2 0.28-3.81 0.97l-0.8 0.91c-1.79 0.53-3.98 1.49-6.17 3.21 0 0-0.64 0.68-1.15 2.07-2.18 1.06-4.04 2.56-5.17 4.66l-0.97 2.17c-0.56 1.37-0.72 3.85-0.61 5.79l0.08 1.41c0.19 3.41 0.93 6.78 2.26 9.92 0.43 1.03 0.95 2.08 1.56 3.08l2.67 4.41h-0.97-0.21l-1.62-0.04v13.62l0.5 0.43 0.09 0.08c0.03 0.03 0.06 0.05 0.09 0.08l0.56 0.54 8.79 8.49c0.43 0.42 0.95 0.63 1.55 0.63h13.23 13.23c0.61 0 1.14-0.21 1.58-0.64 2.95-2.86 6.01-5.81 9.35-9.03 0.45-0.43 0.68-0.96 0.68-1.57-0.01-5.57-0.01-11.14 0-16.71 0-0.6-0.22-1.11-0.64-1.52-2.12-2.05-4.23-4.11-6.34-6.16l3.1-1.17c2.18-0.82 3.85-2.93 4.56-5.77zm-47.31 18.73-0.19-5.21c-0.01-0.18-0.01-0.35-0.01-0.52 0.92 2.49 3.59 4.8 8.82 5.73zm26.81 6.47c-0.35 0.35-0.71 0.69-1.06 1.02h-3.85c-1.33 0-2.65 0-3.98-0.01-0.4-0.38-0.78-0.74-1.13-1.09-0.01-1.2-0.01-2.4-0.01-3.6v-1.86h2.58c1.71 0 2.97 0 6.35-0.01 0.25 0.26 0.5 0.51 0.74 0.76l0.33 0.33c0.03 1.45 0.04 2.91 0.03 4.46zm14.2-21.57-1.82 2.86c-0.32-0.31-1.83-1.77-1.83-1.77-0.26-0.25-0.5-0.48-0.73-0.72-0.42-0.44-0.96-0.66-1.6-0.66-2.89 0-6.12 0.02-9.36 0.03-2.53 0.01-5.06 0.02-7.42 0.03 0.54-0.38 1.09-0.72 1.64-1.05l2.16-1.27c0.65-0.01 1.31-0.02 1.99-0.02 4.48 0 9.35 0.21 13.52 0.43 2.27 0.17 3.33 0.73 3.57 1.18 0.2 0.37-0.12 0.96-0.12 0.96z" fill="#bbbdbb"/>
   <path class="st1" d="m63.1 207.77s-1.02-0.69-3.22 0.05c4.63-8.65 25.89-7.31 35.72-3.16 0 0 1.33 2.57 3.58 0.2 0 0-15.1-7.02-33.37-3.31 4.66-3.66 9.26-3.56 9.26-3.56s-0.2-0.74-2.1-0.74c1.74-1.98 28.91 2.57 28.76 6.92 0 0 6.14 2.77 7.16 4.25 2.07 2.37 1.33 9.59-2.87 11.17 0 0 2.46-3.85-4.58-4.39-22.75-1.15-39.84-0.98-39.3 13.55-6.45-10.62-1.87-15.09 1.61-15.59-2.2-0.35-4.3 0.49-5.3 1.85-0.21-4.03 1.17-7.14 4.65-7.24zm13.04 25.08c0.28 0.01-6.07-9.02 6.82-16.6-19.43-0.63-25.94 15.68-6.82 16.6zm-13.67 14.17c3.12 3.01 6.24 6.02 9.36 9.04 0.16 0.15 0.31 0.22 0.54 0.22 8.82-0.01 17.64-0.01 26.47 0 0.24 0 0.4-0.07 0.57-0.23 3.11-3.02 6.23-6.03 9.36-9.04 0.16-0.15 0.23-0.3 0.23-0.52-0.01-5.57-0.01-11.14 0-16.71 0-0.19-0.05-0.33-0.2-0.47l-8.37-8.13c-0.35-0.34-0.7-0.67-1.03-1.02-0.16-0.16-0.32-0.21-0.54-0.21-5.79 0.01-12.98 0.05-18.77 0.06-4.45 3.46-3.99 11.57-1.63 13.37 5.78-0.01 5.47 0 11.25-0.01 0.32 0 0.55 0.07 0.77 0.31 0.47 0.51 0.98 0.99 1.46 1.49 0.08 0.09 0.15 0.23 0.15 0.34 0.01 1.76 0.01 3.52 0 5.28 0 0.11-0.05 0.24-0.13 0.32-0.54 0.54-1.09 1.07-1.65 1.59-0.09 0.08-0.24 0.14-0.36 0.14-2.86 0.01-5.71 0.01-8.57 0-0.12 0-0.27-0.06-0.36-0.14-0.57-0.54-1.14-1.08-1.69-1.63-0.09-0.1-0.16-0.26-0.16-0.39-0.01-1.64-0.01-3.29-0.01-4.93v-0.38h-0.39-16.13c-0.13 0-0.26-0.01-0.38-0.01v11.47c0.05 0.05 0.13 0.12 0.21 0.19z" fill="#662d80"/>
  </g>
 </g>
</svg>
